<svg width="304" height="66" viewBox="0 0 304 66" fill="none" xmlns="http://www.w3.org/2000/svg">
<path fill-rule="evenodd" clip-rule="evenodd" d="M304 15.7331V0.989505H242.675V15.4363C237.635 4.45277 223.983 0 210.017 0C201.932 0 193.216 1.18741 186.6 4.84858C184.815 5.83808 183.345 7.02549 181.98 8.21289V0.890555H124.225V16.3268H141.342V61.5472L117.085 0.890555H90.6225L73.191 45.0225C73.191 44.8246 73.191 44.6267 73.191 44.3298C73.191 37.3043 68.9907 31.3673 61.01 28.003C53.8694 25.1334 45.6788 24.045 37.9081 22.8576C34.7579 22.2639 28.8774 21.6702 28.8774 18.3058C28.8774 14.9415 33.6028 14.2489 36.963 14.2489C43.2636 14.2489 47.7789 15.931 50.1941 20.6807L70.8808 15.7331C65.8404 4.55172 52.1893 0 38.0131 0C29.9275 0 21.2117 1.18741 14.5962 4.84858C8.08566 8.50975 4.09534 14.6447 4.09534 20.8786C4.09534 36.1169 22.2618 39.3823 37.6981 41.6582C41.3734 42.2519 47.6739 42.9445 47.6739 46.9026C47.6739 50.4648 41.2684 50.8606 38.0131 50.8606C30.7675 50.8606 25.3071 48.7826 23.1019 43.0435L0 46.4078C4.41036 60.3598 19.6366 66 36.753 66C49.039 66 62.6902 62.7346 69.2007 55.1154L65.3154 65.1095H85.687L90.7275 52.5427H112.464L117.085 65.1095H141.342H142.707H165.179V16.3268H176.835C176.415 17.8111 176.099 19.3943 176.099 20.8786C176.099 36.1169 194.266 39.3823 209.702 41.6582C213.378 42.2519 219.678 42.9445 219.678 46.9026C219.678 50.4648 213.273 50.8606 210.017 50.8606C202.772 50.8606 197.311 48.7826 195.106 43.0435L171.899 46.3088C176.309 60.2609 191.536 65.9011 208.652 65.9011C221.988 65.9011 237.005 62.042 242.675 52.9385V65.0105H304V49.7721H267.247V39.3823H297.174V25.0345H267.352V15.7331H304ZM94.8228 38.3928L101.438 19.7901L108.159 38.3928H94.8228ZM232.909 28.1019C225.769 25.2324 217.578 24.1439 209.807 22.9565C206.657 22.3628 200.777 21.7691 200.777 18.4048C200.777 15.0405 205.502 14.3478 208.862 14.3478C215.163 14.3478 219.678 16.03 222.093 20.7796L242.675 15.8321V35.919C240.68 32.6537 237.425 29.982 232.909 28.1019Z" fill="white"/>
</svg>
